HIERARCHY
ROOT Hips
{
  OFFSET 95.5268 101.584 187.439
  CHANNELS 6 Xposition Yposition Zposition Zrotation Xrotation Yrotation
  JOINT RightUpLeg
  {
    OFFSET -8.9458 -8.66707 0.101652
    CHANNELS 3 Zrotation Xrotation Yrotation
    JOINT RightLeg
    {
      OFFSET 0 -44.4227 1.3727
      CHANNELS 3 Zrotation Xrotation Yrotation
      JOINT RightFoot
      {
        OFFSET 0.253549 -42.0924 -1.46059
        CHANNELS 3 Zrotation Xrotation Yrotation
        JOINT RightToes
        {
          OFFSET 0.04 -4.41509 8.4991
          CHANNELS 3 Zrotation Xrotation Yrotation
          End Site
          {
            OFFSET -0.08 -0.137448 9.77979
          }
        }
      }
    }
  }
  JOINT Spine
  {
    OFFSET 0 11.8905 0
    CHANNELS 3 Zrotation Xrotation Yrotation
    JOINT Spine1
    {
      OFFSET 0 25.6574 0.127663
      CHANNELS 3 Zrotation Xrotation Yrotation
      JOINT HEad
      {
        OFFSET 0 8.73416 0.011341
        CHANNELS 3 Zrotation Xrotation Yrotation
        End Site
        {
          OFFSET -0.29 12.7742 2.51395
        }
      }
      JOINT LeftShoulder1
      {
        OFFSET 8.99 -0.362252 -0.22
        CHANNELS 3 Zrotation Xrotation Yrotation
        JOINT LeftArm
        {
          OFFSET 10.2827 -0.00338 0.322123
          CHANNELS 3 Zrotation Xrotation Yrotation
          JOINT LeftForeArm
          {
            OFFSET 32.7669 0.099144 -1.42434
            CHANNELS 3 Zrotation Xrotation Yrotation
            JOINT LeftHand
            {
              OFFSET 27.5643 0.085362 1.02216
              CHANNELS 3 Zrotation Xrotation Yrotation
              End Site
              {
                OFFSET 16.7443 -0.6 1.50291
              }
            }
          }
        }
      }
      JOINT RightShoulder
      {
        OFFSET -8.99 -0.362252 -0.22
        CHANNELS 3 Zrotation Xrotation Yrotation
        JOINT RightArm
        {
          OFFSET -10.2827 -0.00338 0.322123
          CHANNELS 3 Zrotation Xrotation Yrotation
          JOINT RightForeArm
          {
            OFFSET -32.8971 0.099144 -1.42434
            CHANNELS 3 Zrotation Xrotation Yrotation
            JOINT RightHand
            {
              OFFSET -27.4921 0.085362 1.02216
              CHANNELS 3 Zrotation Xrotation Yrotation
              End Site
              {
                OFFSET -16.6312 -0.6 1.50291
              }
            }
          }
        }
      }
    }
  }
  JOINT LeftUpLeg
  {
    OFFSET 8.9458 -8.66707 0.101652
    CHANNELS 3 Zrotation Xrotation Yrotation
    JOINT LeftLeg
    {
      OFFSET 0 -44.4227 1.3727
      CHANNELS 3 Zrotation Xrotation Yrotation
      JOINT LeftFoot
      {
        OFFSET -0.253549 -42.0924 -1.46059
        CHANNELS 3 Zrotation Xrotation Yrotation
        JOINT LeftToes
        {
          OFFSET -0.04 -4.41509 8.4991
          CHANNELS 3 Zrotation Xrotation Yrotation
          End Site
          {
            OFFSET 0.08 -0.047448 9.77979
          }
        }
      }
    }
  }
}
MOTION
Frames:	14
Frame Time:	0.0166667
94.7411 94.6255 186.659 -12.9612 -9.12199 -52.739 -26.6244 2.57232 18.8501 34.5408 31.1565 -36.6079 -24.047 0.64622 -1.29431 0.0462048 0.000533403 0.662642 -1.56794 22.8898 -1.66162 0.01023 0.03211 -0.00341026 -9.42586 12.2689 14.0506 4.41391e-032 7.95139e-016 -3.18055e-015 171.777 -64.1761 -153.946 -124.27 62.1521 -9.91928 18.3289 16.2 -18.1 19.5093 11.1036 -2.63493 96.5924 -17.0904 69.0178 38.5398 59.7443 102.58 14.9469 19.2384 -4.43649 24.1105 -6.93849 -2.00568 -35.7753 14.5157 61.384 -4.01828 -2.92884 -0.411947 -1.86167e-008 1.56035e-007 -4.88727e-009 
94.8221 95.1951 187.075 -12.6358 -9.24145 -52.5213 -26.7695 3.9813 19.1673 33.7471 30.7404 -34.4811 -23.2197 0.50908 -1.25947 0.0462048 0.000533403 0.662642 -2.06839 23.5708 -1.28412 0.00842038 0.03136 0.0138298 -9.48881 11.4329 13.1768 1.59028e-015 0 -0 175.63 -62.4643 -150.733 -127.9 58.7637 -6.95958 16.5215 10.8684 -17.875 24.0306 14.4903 -0.86931 93.0612 -22.1984 70.772 35.8036 63.2103 112.786 11.4155 18.33 -15.9395 23.352 -7.18245 -3.24821 -35.6298 14.1289 61.4298 -4.43961 -2.89894 -0.413231 -1.86167e-008 1.56035e-007 -4.88727e-009 
94.8569 95.7403 187.441 -12.311 -9.37125 -52.2226 -27.0026 5.47014 19.7357 33.4724 30.7759 -31.8778 -22.5461 0.429438 -1.23834 0.0462048 0.000533403 0.662642 -2.42537 24.4522 -0.548637 0.00831008 0.02384 0.0253605 -9.52831 10.5048 11.7605 -7.95139e-016 -2.38542e-015 -3.18055e-015 179.111 -60.6632 -147.599 -131.479 53.9878 -4.0766 15.8954 4.61895 -17.9886 27.8261 18.3625 3.31095 90.2758 -30.5188 71.9692 27.6563 66.4891 129.732 7.50169 16.5592 -30.9457 22.521 -7.47263 -4.54649 -35.0863 14.0354 60.7383 -5.19552 -2.93916 -0.440709 -1.86167e-008 1.56035e-007 -4.88727e-009 
94.7725 96.3194 187.786 -10.9752 -9.73389 -49.6287 -28.0187 7.58193 19.2716 34.372 31.6917 -27.5297 -21.9695 0.480979 -1.19712 0.0462048 0.000533403 0.662642 -2.27955 25.1816 -0.552856 0.00885669 0.0561 0.10009 -9.399 9.4581 8.41969 -8.82781e-032 7.95139e-016 6.36111e-015 -176.113 -58.1882 -142.293 -131.901 45.3319 -1.00253 19.2766 17.4077 -22.6149 27.0608 21.3931 14.9343 89.3152 -45.5449 69.0672 6.08418 65.0774 162.857 1.8647 8.72996 -53.1273 20.3065 -9.23514 -7.48325 -33.2741 14.6002 57.6662 -6.72415 -3.17869 -0.508565 -1.86167e-008 1.56035e-007 -4.88727e-009 
94.6009 96.9388 188.126 -8.96761 -10.2966 -45.1122 -29.5437 10.3505 18.2378 35.665 32.4139 -22.1022 -20.4924 0.33223 -1.20221 0.0462048 0.000533403 0.662642 -1.68788 25.7429 -1.06729 0.00977215 0.04537 0.0960698 -9.10339 8.60661 3.5985 -1.59028e-015 -4.77083e-015 -3.18055e-015 -176.43 -53.2587 -142.845 -129.857 32.3916 2.57746 16.2164 18.4101 -29.0853 24.4627 22.8817 26.399 86.5457 -58.3238 62.0685 -27.6398 47.3637 -134.729 -6.57475 2.71101 -72.759 16.7316 -11.7678 -12.0269 -31.3177 15.1366 54.9067 -8.00552 -3.33462 -0.585516 -1.86167e-008 1.56035e-007 -4.88727e-009 
94.3499 97.4869 188.427 -7.24356 -10.7389 -41.0066 -30.8467 13.0104 18.6933 37.5059 32.492 -18.634 -19.4418 0.346334 -1.20091 0.0462048 0.000533403 0.662642 -0.925594 26.3635 0.0900163 0.010472 0.03375 0.0803397 -8.68519 8.02452 -2.43003 7.95139e-016 -1.59028e-015 -0 -175.039 -49.5902 -139.807 -129.542 24.7169 5.93484 19.5719 25.1194 -33.8627 21.1415 23.1783 36.5042 82.6048 -65.4321 55.7138 -23.7015 25.5172 -111.37 -22.0008 -3.79981 -88.2803 13.0889 -13.7269 -16.2828 -29.2841 15.7041 52.4241 -9.11858 -3.49527 -0.645914 -1.86167e-008 1.56035e-007 -4.88727e-009 
94.0562 97.9705 188.69 -5.7812 -11.1299 -37.2941 -31.9875 15.3359 20.5261 39.9742 32.057 -17.4395 -18.5622 0.409929 -1.20876 0.0462048 0.000533403 0.662642 -0.0512825 26.9153 2.73705 0.0107617 0.02743 0.0694397 -8.20013 7.77641 -9.4733 -7.95139e-016 -3.18055e-015 -9.54166e-015 -178.599 -46.4162 -140.351 -130.034 20.1742 9.5153 32.9969 17.8334 -39.3714 22.2372 19.6677 31.5572 73.9052 -56.6159 47.228 -18.7007 24.0867 -138.005 -13.8523 -1.24933 -77.9105 9.52094 -15.1075 -20.179 -27.1721 16.3073 50.1581 -10.1395 -3.6686 -0.713296 -1.86167e-008 1.56035e-007 -4.88727e-009 
93.7833 98.3844 188.878 -4.54513 -11.5064 -33.9641 -32.9488 17.1736 22.516 41.8739 30.0366 -17.7302 -17.8061 0.231494 -1.25738 0.0462048 0.000533403 0.662642 0.838303 27.249 6.64077 0.0207915 0.02728 0.0609895 -7.64172 7.94061 -17.2444 2.38542e-015 0 -0 -179.125 -45.0755 -136.432 -127.912 21.5285 10.5926 14.6313 19.0795 -36.9409 23.5176 16.3699 26.0878 71.7274 -48.5182 46.075 -18.0896 29.2629 -175.325 -31.3946 -0.951561 -62.6481 6.126 -15.9244 -23.6418 -24.91 16.8706 48.028 -11.1029 -3.7749 -0.76458 -1.86167e-008 1.56035e-007 -4.88727e-009 
93.5452 98.7435 188.999 -3.50585 -11.8736 -31.0125 -33.7479 18.587 24.5578 43.3862 27.3607 -19.0197 -17.2244 0.129408 -1.21788 0.0462048 0.000533403 0.662642 1.78368 27.2514 11.553 0.030051 0.01477 0.0421593 -7.01936 8.58312 -25.4911 -8.82781e-032 -1.59028e-015 -3.18055e-015 -177.647 -45.4352 -129.439 -130.165 22.6969 12.951 39.0432 13.643 -41.633 25.0009 13.3911 18.8824 72.8224 -41.0011 49.4755 -17.0273 31.0886 172.078 -24.7368 4.74935 -41.7259 3.03189 -16.2683 -26.6064 -22.6031 17.3997 46.0333 -12.0157 -3.84361 -0.810976 -1.86167e-008 1.56035e-007 -4.88727e-009 
93.3617 99.0546 189.026 -2.65405 -12.2528 -28.4345 -34.4207 19.6708 26.6041 44.5989 24.5613 -20.8995 -16.7039 0.0375667 -1.1705 0.0462048 0.000533403 0.662642 2.80429 27.1117 17.0308 0.0211108 0.01377 0.0315195 -6.33459 9.47058 -33.8347 1.98785e-015 -1.59028e-015 -1.59028e-015 -173.962 -46.1196 -121.002 -131.857 23.3089 13.603 21.7164 17.3112 -39.1503 16.5839 10.4491 21.264 86.2652 -42.3848 57.2476 -13.326 35.1863 156.911 -35.3547 -1.19996 -25.841 0.303721 -16.2297 -29.0431 -20.3281 17.8896 44.1775 -12.853 -3.88811 -0.85413 -1.86167e-008 1.56035e-007 -4.88727e-009 
93.2422 99.3233 188.949 -1.98567 -12.6506 -26.2197 -34.976 20.5056 28.6137 45.5756 21.9292 -23.0595 -16.2878 -0.0255695 -1.12472 0.0462048 0.000533403 0.662642 3.72748 26.5593 21.647 -0.00377153 -0.00130002 -0.0631199 -5.5214 10.6711 -40.6649 1.19271e-015 -1.59028e-015 -0 -169.612 -46.8303 -113.627 -132.386 23.5596 13.0608 32.4 12.9361 -39.2491 16.0964 8.95973 14.4151 92.2182 -38.0555 67.0532 -2.40658 38.1351 129.889 -25.8553 4.79914 0.0130537 -2.02938 -15.9222 -30.951 -18.1522 18.3357 42.4662 -13.5736 -3.92487 -0.894021 -1.86167e-008 1.56035e-007 -4.88727e-009 
93.1875 99.5515 188.785 -1.49644 -13.0578 -24.3514 -35.4193 21.15 30.5553 46.3747 19.5766 -25.292 -15.9682 -0.0588218 -1.08463 0.0462048 0.000533403 0.662642 4.55916 25.705 25.3311 -0.00185158 -0.00154002 -0.06491 -4.56717 12.0357 -46.1463 -4.96962e-017 -4.77083e-015 -3.97569e-016 -164.958 -47.271 -107.194 -132.089 23.7463 11.9519 21.9443 15.5882 -37.2306 4.55384 7.72209 14.2058 111.143 -36.631 80.3267 10.272 36.4714 102.408 -25.7405 -3.47929 14.9766 -3.96949 -15.4546 -32.3549 -16.1252 18.7282 40.8971 -14.1325 -3.96502 -0.929084 -1.86167e-008 1.56035e-007 -4.88727e-009 
93.1884 99.7414 188.572 -1.17589 -13.4536 -22.8107 -35.7508 21.6415 32.3974 47.0418 17.529 -27.4764 -15.7666 -0.0612592 -1.05218 0.0462048 0.000533403 0.662642 5.26869 24.6648 28.1172 -0.000951368 0.00445998 -0.05668 -3.47345 13.4178 -50.2685 -1.59028e-015 1.59028e-015 -0 -160.417 -47.3749 -101.89 -130.92 24.053 10.5212 27.6788 13.5322 -36.2587 4.44085 8.48462 8.9331 116.065 -30.4169 89.9999 21.0231 29.8434 77.7717 -11.2158 17.1469 36.7982 -5.54331 -14.9151 -33.2946 -14.2763 19.063 39.4601 -14.4962 -4.01231 -0.95708 -1.86167e-008 1.56035e-007 -4.88727e-009 
93.2333 99.8887 188.354 -1.0108 -13.8147 -21.5846 -35.9768 22.0008 34.116 47.6119 15.7705 -29.5577 -15.6562 -0.0390868 -1.02765 0.0462048 0.000533403 0.662642 5.85241 23.5452 30.0683 0.00750205 0.01078 -0.0473702 -2.3378 14.7228 -53.1243 1.39149e-015 0 -0 -156.294 -47.2548 -97.6256 -129.482 24.5462 9.17976 20.8465 15.0937 -34.5587 4.76179 9.4746 5.03187 119.43 -24.7834 99.1802 23.3419 20.9152 60.1025 -15.1962 14.7263 30.3698 -6.78155 -14.3629 -33.813 -12.6281 19.3385 38.147 -14.6439 -4.0689 -0.975256 -1.86167e-008 1.56035e-007 -4.88727e-009 
